<svg viewBox="0 0 1024 1024" xmlns="http://www.w3.org/2000/svg">
  <rect width="1024" height="1024" fill="#F4F3EE"/>
  <svg x="112" y="112" width="800" height="800" viewBox="16 8 88 88">
    <polygon points="60,9 63.2,15.8 72,19 63.2,22.2 60,31 56.8,22.2 48,19 56.8,15.8" fill="#E89A2C"/>
    <polygon points="43.6,25.6 45.5,30.1 50,32 45.5,33.9 43.6,38.4 41.7,33.9 37.2,32 41.7,30.1" fill="#18191F"/>
    <polygon points="77.9,23.6 79.8,28.1 84.3,30 79.8,31.9 77.9,36.4 76,31.9 71.5,30 76,28.1" fill="#18191F"/>
    <path d="M60 53 C 50 45, 34 45, 26 52 L 26 88 C 34 79, 50 79, 60 88 Z" fill="#F2C96D" stroke="#18191F" stroke-width="5" stroke-linejoin="round"/>
    <path d="M60 53 C 70 45, 86 45, 94 52 L 94 88 C 86 79, 70 79, 60 88 Z" fill="#F2C96D" stroke="#18191F" stroke-width="5" stroke-linejoin="round"/>
    <line x1="60" y1="53" x2="60" y2="88" stroke="#18191F" stroke-width="4"/>
  </svg>
</svg>
